<svg width="155" height="155" viewBox="0 0 155 155" fill="none" xmlns="http://www.w3.org/2000/svg">
<path d="M145.882 77.5C145.882 115.267 115.267 145.882 77.5 145.882C39.7335 145.882 9.11765 115.267 9.11765 77.5C9.11765 39.7335 39.7335 9.11765 77.5 9.11765C115.267 9.11765 145.882 39.7335 145.882 77.5Z" fill="url(#paint0_linear_1060_2816)"/>
<path fill-rule="evenodd" clip-rule="evenodd" d="M155 77.5C155 120.302 120.302 155 77.5 155C34.6979 155 0 120.302 0 77.5C0 34.6979 34.6979 0 77.5 0C120.302 0 155 34.6979 155 77.5ZM77.5 145.882C115.267 145.882 145.882 115.267 145.882 77.5C145.882 39.7335 115.267 9.11765 77.5 9.11765C39.7335 9.11765 9.11765 39.7335 9.11765 77.5C9.11765 115.267 39.7335 145.882 77.5 145.882Z" fill="url(#paint1_linear_1060_2816)"/>
<path d="M72.2642 38.7821C75.3462 35.7001 80.343 35.7001 83.425 38.7821L116.907 72.2642C119.989 75.3462 119.989 80.343 116.907 83.425L83.425 116.907C80.343 119.989 75.3462 119.989 72.2642 116.907L38.7821 83.425C35.7001 80.343 35.7001 75.3462 38.7821 72.2642L72.2642 38.7821Z" fill="url(#paint2_linear_1060_2816)" fill-opacity="0.85"/>
<defs>
<linearGradient id="paint0_linear_1060_2816" x1="-4.07992e-08" y1="77.5001" x2="155" y2="77.5001" gradientUnits="userSpaceOnUse">
<stop stop-color="#00CBFE"/>
<stop offset="1" stop-color="#3465E5"/>
</linearGradient>
<linearGradient id="paint1_linear_1060_2816" x1="-2.27941" y1="77.5" x2="157.279" y2="77.5" gradientUnits="userSpaceOnUse">
<stop stop-color="#19C7F2"/>
<stop offset="1" stop-color="#1B55EB"/>
</linearGradient>
<linearGradient id="paint2_linear_1060_2816" x1="57.3303" y1="51.407" x2="102.919" y2="96.9952" gradientUnits="userSpaceOnUse">
<stop stop-color="white"/>
<stop offset="1" stop-color="white" stop-opacity="0.5"/>
</linearGradient>
</defs>
</svg>
